<?xml version="1.0" encoding="UTF-8"?>
<svg id="Livello_2" data-name="Livello 2" xmlns="http://www.w3.org/2000/svg" viewBox="0 0 173.62 60">
  <defs>
    <style>
      .cls-1 {
        fill: #e10f22;
      }
    </style>
  </defs>
  <g id="logo_CADORO" data-name="logo CADORO">
    <path id="Tracciato_260" data-name="Tracciato 260" class="cls-1" d="M155.35,0H18.28C8.24-.05.05,8.04,0,18.08c0,0,0,0,0,0v23.83c.05,10.04,8.24,18.14,18.28,18.08h0s137.07,0,137.07,0c10.04.05,18.22-8.04,18.28-18.08,0,0,0,0,0,0v-23.83C173.57,8.04,165.39-.05,155.35,0c0,0,0,0,0,0M171.56,41.51c-.05,9.13-7.49,16.49-16.61,16.44h0s-136.26,0-136.26,0c-9.13.05-16.57-7.31-16.62-16.44v-23.02c.05-9.13,7.49-16.49,16.61-16.44,0,0,0,0,0,0h136.26c9.13-.05,16.57,7.31,16.61,16.43,0,0,0,0,0,0v23.02Z"/>
    <path id="Tracciato_261" data-name="Tracciato 261" class="cls-1" d="M76.81,9.06c2.55.31,8.26,2.56,8.58,8.87v24.74c0,5.35-4.37,8.53-8.58,9.09h-12.91V9.06h12.91ZM73.22,18.27v24.23s2.73.49,2.73-1.83v-20.77c0-1.94-2.73-1.62-2.73-1.62"/>
    <path id="Tracciato_262" data-name="Tracciato 262" class="cls-1" d="M112.77,9.06h13.15c4.43.33,7.88,3.99,7.95,8.43v9.98c-.08.99-.75,1.83-1.7,2.11,0,0,1.69.23,1.7,2.83v19.33s-9.39,0-9.39,0v-17.3c-.44-1.75-2.64-1.24-2.64-1.24v18.54h-9.1l.02-42.69ZM121.87,18.17v8.2s2.16.51,2.62-1.15v-5.78c-.23-1.7-2.62-1.27-2.62-1.27"/>
    <path id="Tracciato_263" data-name="Tracciato 263" class="cls-1" d="M39.6,18.05c1.39-12.05,19.75-12.06,21.42-.02v33.77h-9.48v-18.72h-2.64v18.72h-9.29V18.05ZM51.54,26.47v-7.34c.03-.73-.53-1.35-1.26-1.39-.73-.03-1.35.53-1.39,1.26,0,.04,0,.08,0,.13v7.34h2.64Z"/>
    <path id="Tracciato_264" data-name="Tracciato 264" class="cls-1" d="M88.37,18.15c1.85-12.29,19.52-12.29,21.22-.04v24.87c-1.82,11.84-19.15,11.84-21.22.02v-24.86ZM97.67,40.87c-.09.71.42,1.36,1.13,1.45s1.36-.42,1.45-1.13c.01-.09.01-.18,0-.26v-21.34c0-2.05-2.57-1.96-2.56.09l-.02,21.19Z"/>
    <path id="Tracciato_265" data-name="Tracciato 265" class="cls-1" d="M27.22,33.01l.03,7.92c.05.72-.5,1.34-1.22,1.39-.72.05-1.34-.5-1.39-1.22,0-.06,0-.13,0-.19l.04-21.23c0-2.05,2.53-2.01,2.54.03v6.71h9.35v-8.31c-1.69-12.25-19.36-12.25-21.21.04v24.86c2.08,11.82,19.4,11.82,21.22-.02v-9.98s-9.36,0-9.36,0Z"/>
    <path id="Tracciato_266" data-name="Tracciato 266" class="cls-1" d="M137.04,18.15c1.84-12.29,19.52-12.29,21.22-.04v24.87c-1.82,11.84-19.14,11.84-21.22.02v-24.86ZM146.34,40.87c-.09.71.42,1.36,1.13,1.45.71.09,1.36-.42,1.45-1.13.01-.09.01-.18,0-.26v-21.34c-.02-2.05-2.57-1.96-2.57.09l-.02,21.19Z"/>
  </g>
</svg>