<?xml version="1.0" encoding="UTF-8"?>
<svg id="Livello_2" data-name="Livello 2" xmlns="http://www.w3.org/2000/svg" viewBox="0 0 261.59 252.02">
  <defs>
    <style>
      .cls-1 {
        fill: #abacae;
      }
    </style>
  </defs>
  <g id="number">
    <path class="cls-1" d="M257.63,130.07c-3.03,3.35-7.2,5.05-11.38,5.05-3.67,0-7.35-1.31-10.29-3.97l-1.2-1.09v109.96c0,6.6-5.4,12-12,12H43.65c-6.6,0-12-5.4-12-12v-114.32l-6.02,5.45c-2.93,2.66-6.62,3.97-10.28,3.97-4.19,0-8.36-1.7-11.39-5.05-5.68-6.28-5.19-15.98,1.09-21.66l26.6-24.07,39.15-35.43L120.48,3.96c2.33-2.1,5.12-3.36,8-3.78.26-.04.52-.07.78-.1.22-.02.44-.04.66-.05.58-.04,1.17-.04,1.75,0,.22.01.44.03.66.05.26.03.52.06.78.1,2.88.42,5.67,1.68,8,3.78l49.68,44.95,43.97,39.78,21.79,19.72c6.28,5.68,6.76,15.38,1.08,21.66Z"/>
  </g>
</svg>