<?xml version="1.0" encoding="UTF-8"?>
<svg id="Livello_2" data-name="Livello 2" xmlns="http://www.w3.org/2000/svg" viewBox="0 0 531.53 799.92">
  <defs>
    <style>
      .cls-1 {
        fill: #e5e7eb;
      }
    </style>
  </defs>
  <g id="Capa_1" data-name="Capa 1">
    <path class="cls-1" d="M264.53,525.34c86.26,0,156.54-70.28,156.54-156.54v-212.35C421.07,70.28,350.79,0,264.53,0S107.99,70.28,107.99,156.54v212.35c0,86.36,70.28,156.54,156.54,156.54v-.1ZM147.82,156.54c0-64.29,52.41-116.61,116.61-116.61s116.61,52.41,116.61,116.61v212.35c0,64.29-52.41,116.61-116.61,116.61s-116.61-52.41-116.61-116.61v-212.35h0Z"/>
    <path class="cls-1" d="M19.97,350.36c-11.08,0-19.97,8.99-19.97,19.97,0,139.77,108.52,254.78,245.8,264.86v124.79h-103.93c-11.08,0-19.97,8.99-19.97,19.97s8.99,19.97,19.97,19.97h247.79c11.08,0,19.97-8.99,19.97-19.97s-8.99-19.97-19.97-19.97h-103.93v-124.79c137.27-10.28,245.8-125.09,245.8-264.86,0-12.19-8.99-19.97-19.97-19.97s-19.97,8.99-19.97,19.97c0,124.59-101.33,226.03-226.03,226.03S39.53,495.02,39.53,370.32c.3-11.08-8.49-19.97-19.57-19.97h0Z"/>
  </g>
</svg>