<?xml version="1.0" encoding="UTF-8"?>
<svg id="number" xmlns="http://www.w3.org/2000/svg" viewBox="0 0 600 600">
  <defs>
    <style>
      .cls-1 {
        fill: #fff;
      }
    </style>
  </defs>
  <g>
    <circle cx="169.94" cy="328.59" r="9.5"/>
    <path d="M169.94,338.21c-5.31,0-9.62-4.32-9.62-9.62s4.32-9.62,9.62-9.62,9.62,4.32,9.62,9.62-4.32,9.62-9.62,9.62ZM169.94,319.21c-5.17,0-9.38,4.21-9.38,9.38s4.21,9.38,9.38,9.38,9.38-4.21,9.38-9.38-4.21-9.38-9.38-9.38Z"/>
  </g>
  <path class="cls-1" d="M172.58,326.47l-1.05.08c-.09-.41-.23-.71-.4-.9-.29-.3-.64-.45-1.05-.45-.34,0-.63.09-.88.28-.33.24-.59.6-.79,1.06s-.29,1.13-.3,1.99c.25-.39.56-.67.93-.86s.75-.28,1.15-.28c.7,0,1.3.26,1.8.78s.74,1.19.74,2.01c0,.54-.12,1.04-.35,1.5s-.55.82-.96,1.06-.87.37-1.38.37c-.88,0-1.6-.32-2.15-.97s-.83-1.71-.83-3.2c0-1.66.31-2.87.92-3.62.54-.66,1.26-.98,2.16-.98.68,0,1.23.19,1.66.57s.69.9.78,1.57ZM168.27,330.17c0,.36.08.71.23,1.04s.37.58.65.76.57.26.87.26c.45,0,.83-.18,1.15-.54s.48-.85.48-1.46-.16-1.06-.47-1.4-.71-.51-1.2-.51-.88.17-1.21.51c-.33.34-.5.79-.5,1.34Z"/>
</svg>