<?xml version="1.0" encoding="UTF-8"?>
<svg id="number" xmlns="http://www.w3.org/2000/svg" viewBox="0 0 600 600">
  <defs>
    <style>
      .cls-1 {
        fill: #fff;
      }
    </style>
  </defs>
  <g>
    <circle cx="362.62" cy="328.59" r="9.5"/>
    <path d="M362.62,338.21c-5.31,0-9.62-4.32-9.62-9.62s4.32-9.62,9.62-9.62,9.62,4.32,9.62,9.62-4.32,9.62-9.62,9.62ZM362.62,319.21c-5.17,0-9.38,4.21-9.38,9.38s4.21,9.38,9.38,9.38,9.38-4.21,9.38-9.38-4.21-9.38-9.38-9.38Z"/>
  </g>
  <path class="cls-1" d="M361.41,328.3c-.44-.16-.76-.39-.97-.69s-.32-.65-.32-1.07c0-.62.22-1.15.67-1.58s1.05-.64,1.79-.64,1.35.22,1.81.65.69.97.69,1.59c0,.4-.1.75-.31,1.04s-.53.52-.95.68c.53.17.93.45,1.2.83s.41.84.41,1.37c0,.73-.26,1.35-.78,1.85s-1.2.75-2.05.75-1.53-.25-2.05-.75-.78-1.13-.78-1.88c0-.56.14-1.03.42-1.4s.69-.63,1.21-.77ZM360.86,330.48c0,.3.07.59.21.87s.35.5.64.65.58.23.91.23c.5,0,.92-.16,1.25-.49s.49-.74.49-1.24-.17-.93-.51-1.26-.76-.5-1.27-.5-.91.16-1.23.49-.49.74-.49,1.23ZM361.2,326.51c0,.41.13.74.39,1s.6.39,1.02.39.74-.13,1-.38.39-.57.39-.94-.13-.71-.4-.98-.6-.4-1-.4-.74.13-1,.39-.4.57-.4.93Z"/>
</svg>