<?xml version="1.0" encoding="UTF-8"?>
<svg id="number" xmlns="http://www.w3.org/2000/svg" viewBox="0 0 600 600">
  <defs>
    <style>
      .cls-1 {
        fill: #fff;
      }
    </style>
  </defs>
  <g>
    <circle cx="541.67" cy="464.25" r="9.5"/>
    <path d="M541.67,473.88c-5.31,0-9.62-4.32-9.62-9.62s4.32-9.62,9.62-9.62,9.62,4.32,9.62,9.62-4.32,9.62-9.62,9.62ZM541.67,454.88c-5.17,0-9.38,4.21-9.38,9.38s4.21,9.38,9.38,9.38,9.38-4.21,9.38-9.38-4.21-9.38-9.38-9.38Z"/>
  </g>
  <path class="cls-1" d="M542.21,468.62v-2.06h-3.73v-.97l3.92-5.57h.86v5.57h1.16v.97h-1.16v2.06h-1.05ZM542.21,465.6v-3.87l-2.69,3.87h2.69Z"/>
</svg>