<?xml version="1.0" encoding="UTF-8"?>
<svg id="number" xmlns="http://www.w3.org/2000/svg" viewBox="0 0 600 600">
  <defs>
    <style>
      .cls-1 {
        fill: #fff;
      }
    </style>
  </defs>
  <g>
    <circle cx="453.95" cy="328.59" r="9.5"/>
    <path d="M453.95,338.21c-5.31,0-9.62-4.32-9.62-9.62s4.32-9.62,9.62-9.62,9.62,4.32,9.62,9.62-4.32,9.62-9.62,9.62ZM453.95,319.21c-5.17,0-9.38,4.21-9.38,9.38s4.21,9.38,9.38,9.38,9.38-4.21,9.38-9.38-4.21-9.38-9.38-9.38Z"/>
  </g>
  <path class="cls-1" d="M451.26,330.97l1.01-.09c.09.48.25.82.49,1.04s.55.32.93.32c.32,0,.61-.07.85-.22s.44-.35.6-.59.29-.58.39-1,.16-.85.16-1.29c0-.05,0-.12,0-.21-.21.34-.5.61-.86.82s-.76.31-1.19.31c-.71,0-1.31-.26-1.8-.77s-.74-1.2-.74-2.04.26-1.57.77-2.1,1.16-.8,1.93-.8c.56,0,1.07.15,1.53.45s.81.73,1.05,1.29.36,1.36.36,2.42-.12,1.97-.36,2.62-.59,1.15-1.06,1.49-1.02.51-1.66.51c-.67,0-1.22-.19-1.65-.56s-.68-.9-.77-1.57ZM455.58,327.18c0-.61-.16-1.09-.48-1.44s-.71-.53-1.16-.53-.88.19-1.22.57-.52.88-.52,1.49c0,.55.17.99.5,1.33s.74.51,1.22.51.89-.17,1.2-.51.47-.82.47-1.42Z"/>
</svg>