<?xml version="1.0" encoding="UTF-8"?>
<svg id="number" xmlns="http://www.w3.org/2000/svg" viewBox="0 0 600 600">
  <defs>
    <style>
      .cls-1 {
        fill: #fff;
      }
    </style>
  </defs>
  <g>
    <circle cx="64.35" cy="328.59" r="9.5"/>
    <path d="M64.35,338.21c-5.31,0-9.62-4.32-9.62-9.62s4.32-9.62,9.62-9.62,9.62,4.32,9.62,9.62-4.32,9.62-9.62,9.62ZM64.35,319.21c-5.17,0-9.38,4.21-9.38,9.38s4.21,9.38,9.38,9.38,9.38-4.21,9.38-9.38-4.21-9.38-9.38-9.38Z"/>
  </g>
  <path class="cls-1" d="M61.52,330.71l1.11-.09c.08.54.27.94.57,1.22s.66.41,1.08.41c.51,0,.94-.19,1.29-.57s.53-.89.53-1.52-.17-1.08-.51-1.42-.78-.52-1.33-.52c-.34,0-.65.08-.92.23s-.49.35-.64.6l-.99-.13.83-4.41h4.27v1.01h-3.43l-.46,2.31c.52-.36,1.06-.54,1.62-.54.75,0,1.38.26,1.9.78s.77,1.19.77,2-.23,1.45-.68,2.02c-.55.7-1.3,1.04-2.26,1.04-.78,0-1.42-.22-1.91-.66s-.78-1.02-.85-1.74Z"/>
</svg>