<?xml version="1.0" encoding="UTF-8"?>
<svg id="number" xmlns="http://www.w3.org/2000/svg" viewBox="0 0 600 600">
  <defs>
    <style>
      .cls-1 {
        fill: #fff;
      }
    </style>
  </defs>
  <g>
    <circle cx="453.95" cy="152.06" r="9.5"/>
    <path d="M453.95,161.69c-5.31,0-9.62-4.32-9.62-9.62s4.32-9.62,9.62-9.62,9.62,4.32,9.62,9.62-4.32,9.62-9.62,9.62ZM453.95,142.69c-5.17,0-9.38,4.21-9.38,9.38s4.21,9.38,9.38,9.38,9.38-4.21,9.38-9.38-4.21-9.38-9.38-9.38Z"/>
  </g>
  <g>
    <path class="cls-1" d="M451.74,156.43h-1.05v-6.72c-.25.24-.59.48-1,.73s-.78.42-1.11.54v-1.02c.59-.28,1.11-.61,1.55-1.01s.75-.78.94-1.15h.68v8.62Z"/>
    <path class="cls-1" d="M459.99,155.42v1.01h-5.68c0-.25.03-.5.12-.73.14-.39.38-.77.69-1.14s.78-.81,1.38-1.3c.93-.77,1.56-1.37,1.89-1.82s.49-.87.49-1.27c0-.42-.15-.77-.45-1.06s-.69-.43-1.17-.43c-.51,0-.91.15-1.22.46s-.46.73-.46,1.27l-1.08-.11c.07-.81.35-1.42.84-1.85s1.13-.64,1.95-.64,1.48.23,1.96.69.72,1.02.72,1.7c0,.34-.07.68-.21,1.01s-.37.68-.7,1.05-.87.87-1.63,1.51c-.63.53-1.04.89-1.22,1.08s-.33.38-.45.57h4.21Z"/>
  </g>
</svg>