<?xml version="1.0" encoding="UTF-8"?>
<svg id="number" xmlns="http://www.w3.org/2000/svg" viewBox="0 0 600 600">
  <defs>
    <style>
      .cls-1 {
        fill: #fff;
      }
    </style>
  </defs>
  <g>
    <circle cx="453.95" cy="464.25" r="9.5"/>
    <path d="M453.95,473.88c-5.31,0-9.62-4.32-9.62-9.62s4.32-9.62,9.62-9.62,9.62,4.32,9.62,9.62-4.32,9.62-9.62,9.62ZM453.95,454.88c-5.17,0-9.38,4.21-9.38,9.38s4.21,9.38,9.38,9.38,9.38-4.21,9.38-9.38-4.21-9.38-9.38-9.38Z"/>
  </g>
  <path class="cls-1" d="M451.11,466.35l1.05-.14c.12.6.33,1.03.62,1.29s.65.4,1.06.4c.5,0,.92-.17,1.26-.52s.51-.77.51-1.28-.16-.88-.47-1.2-.72-.47-1.21-.47c-.2,0-.45.04-.74.12l.12-.93c.07,0,.13.01.17.01.45,0,.85-.12,1.21-.35s.54-.6.54-1.08c0-.39-.13-.71-.39-.96s-.6-.38-1.01-.38-.75.13-1.03.39-.45.64-.53,1.16l-1.05-.19c.13-.71.42-1.25.88-1.64s1.03-.58,1.71-.58c.47,0,.9.1,1.29.3s.7.48.91.82.31.72.31,1.11-.1.71-.3,1.01-.49.55-.88.73c.51.12.9.36,1.18.73s.42.83.42,1.39c0,.75-.27,1.39-.82,1.91s-1.24.78-2.07.78c-.75,0-1.38-.22-1.88-.67s-.78-1.03-.85-1.75Z"/>
</svg>