<?xml version="1.0" encoding="UTF-8"?>
<svg id="number" xmlns="http://www.w3.org/2000/svg" viewBox="0 0 600 600">
  <defs>
    <style>
      .cls-1 {
        fill: #fff;
      }
    </style>
  </defs>
  <g>
    <circle cx="541.67" cy="328.59" r="9.5"/>
    <path d="M541.67,338.21c-5.31,0-9.62-4.32-9.62-9.62s4.32-9.62,9.62-9.62,9.62,4.32,9.62,9.62-4.32,9.62-9.62,9.62ZM541.67,319.21c-5.17,0-9.38,4.21-9.38,9.38s4.21,9.38,9.38,9.38,9.38-4.21,9.38-9.38-4.21-9.38-9.38-9.38Z"/>
  </g>
  <g>
    <path class="cls-1" d="M539.46,332.96h-1.05v-6.72c-.25.24-.59.48-1,.73s-.78.42-1.11.54v-1.02c.59-.28,1.11-.61,1.55-1.01s.75-.78.94-1.15h.68v8.62Z"/>
    <path class="cls-1" d="M542.17,328.72c0-1.02.1-1.83.31-2.45s.52-1.1.93-1.43.93-.5,1.56-.5c.46,0,.87.09,1.21.28s.63.45.86.8.4.78.53,1.28.19,1.18.19,2.03c0,1.01-.1,1.82-.31,2.44s-.52,1.1-.93,1.44-.93.51-1.56.51c-.83,0-1.48-.3-1.95-.89-.57-.71-.85-1.88-.85-3.49ZM543.25,328.72c0,1.41.17,2.35.5,2.82s.74.7,1.22.7.89-.23,1.22-.7c.33-.47.5-1.41.5-2.81s-.17-2.35-.5-2.82-.74-.7-1.23-.7-.87.21-1.16.62c-.36.52-.54,1.49-.54,2.9Z"/>
  </g>
</svg>