<?xml version="1.0" encoding="UTF-8"?>
<svg id="number" xmlns="http://www.w3.org/2000/svg" viewBox="0 0 600 600">
  <defs>
    <style>
      .cls-1 {
        fill: #fff;
      }
    </style>
  </defs>
  <g>
    <circle cx="362.62" cy="152.06" r="9.5"/>
    <path d="M362.62,161.69c-5.31,0-9.62-4.32-9.62-9.62s4.32-9.62,9.62-9.62,9.62,4.32,9.62,9.62-4.32,9.62-9.62,9.62ZM362.62,142.69c-5.17,0-9.38,4.21-9.38,9.38s4.21,9.38,9.38,9.38,9.38-4.21,9.38-9.38-4.21-9.38-9.38-9.38Z"/>
  </g>
  <g>
    <path class="cls-1" d="M360.87,156.43h-1.05v-6.72c-.25.24-.59.48-1,.73s-.78.42-1.11.54v-1.02c.59-.28,1.11-.61,1.55-1.01s.75-.78.94-1.15h.68v8.62Z"/>
    <path class="cls-1" d="M366.65,156.43h-1.05v-6.72c-.25.24-.59.48-1,.73s-.78.42-1.11.54v-1.02c.59-.28,1.11-.61,1.55-1.01s.75-.78.94-1.15h.68v8.62Z"/>
  </g>
</svg>