<?xml version="1.0" encoding="UTF-8"?>
<svg id="arrow" xmlns="http://www.w3.org/2000/svg" viewBox="0 0 600 600">
  <defs>
    <style>
      .cls-1 {
        fill: #fff;
      }
    </style>
  </defs>
  <g>
    <polygon points="171.61 550.74 170.25 549.48 174.6 544.9 163.44 544.9 163.44 543.06 174.53 543.06 170.2 538.5 171.53 537.22 177.95 544.02 171.61 550.74"/>
    <path class="cls-1" d="M171.63,551.09l-1.73-1.6,4.12-4.34h-10.83v-2.34h10.76l-4.1-4.32,1.69-1.62,6.75,7.15-6.67,7.07ZM170.61,549.47l.99.92,6-6.37-6.08-6.44-.97.93,4.56,4.8h-11.43v1.34h11.49l-4.57,4.82Z"/>
  </g>
  <g>
    <polygon points="135.22 557.07 133.96 558.43 129.38 554.09 129.38 565.25 127.54 565.25 127.54 554.15 122.98 558.48 121.71 557.16 128.51 550.74 135.22 557.07"/>
    <path class="cls-1" d="M129.63,565.5h-2.34v-10.76l-4.32,4.1-1.62-1.69,7.15-6.75,7.07,6.67-1.6,1.73-4.34-4.12v10.83ZM127.79,565h1.34v-11.49l4.82,4.57.92-.99-6.36-6-6.44,6.08.93.97,4.8-4.56v11.43Z"/>
  </g>
  <g>
    <polygon points="105.95 558.91 107.21 557.55 111.79 561.9 111.79 550.74 113.63 550.74 113.63 561.83 118.19 557.5 119.47 558.83 112.67 565.25 105.95 558.91"/>
    <path class="cls-1" d="M112.67,565.59l-7.07-6.67,1.6-1.73,4.34,4.12v-10.83h2.34v10.76l4.32-4.1,1.62,1.69-7.15,6.75ZM106.3,558.9l6.36,6,6.44-6.08-.93-.96-4.8,4.56v-11.43h-1.34v11.49l-4.82-4.57-.92.99Z"/>
  </g>
  <g>
    <polygon points="90.46 514.42 91.72 513.06 96.3 517.4 96.3 506.24 98.14 506.24 98.14 517.34 102.7 513.01 103.98 514.34 97.18 520.75 90.46 514.42"/>
    <path class="cls-1" d="M97.18,521.1l-7.07-6.67,1.6-1.73,4.34,4.12v-10.83h2.34v10.76l4.32-4.1,1.62,1.69-7.15,6.75ZM90.81,514.41l6.36,6,6.44-6.08-.93-.96-4.8,4.56v-11.43h-1.34v11.49l-4.82-4.57-.92.99Z"/>
  </g>
  <g>
    <polygon points="137.2 514.42 138.46 513.06 143.03 517.4 143.03 506.24 144.87 506.24 144.87 517.34 149.43 513.01 150.71 514.34 143.91 520.75 137.2 514.42"/>
    <path class="cls-1" d="M143.91,521.1l-7.07-6.67,1.6-1.73,4.34,4.12v-10.83h2.34v10.76l4.32-4.1,1.62,1.69-7.15,6.75ZM137.55,514.41l6.36,6,6.44-6.08-.93-.96-4.8,4.56v-11.43h-1.34v11.49l-4.82-4.57-.92.99Z"/>
  </g>
  <g>
    <polygon points="43.15 514.42 44.41 513.06 48.99 517.4 48.99 506.24 50.83 506.24 50.83 517.34 55.39 513.01 56.66 514.34 49.86 520.75 43.15 514.42"/>
    <path class="cls-1" d="M49.86,521.1l-7.07-6.67,1.6-1.73,4.34,4.12v-10.83h2.34v10.76l4.32-4.1,1.62,1.69-7.15,6.75ZM43.5,514.41l6.36,6,6.44-6.08-.93-.96-4.8,4.56v-11.43h-1.34v11.49l-4.82-4.57-.92.99Z"/>
  </g>
</svg>