<?xml version="1.0" encoding="UTF-8"?>
<svg id="Livello_1" data-name="Livello 1" xmlns="http://www.w3.org/2000/svg" viewBox="0 0 600 600">
  <defs>
    <style>
      .cls-1 {
        fill: #fff;
      }
    </style>
  </defs>
  <path d="M250.17,521.25h-50.33v-114h50.33v114ZM200.83,520.25h48.33v-112h-48.33v112Z"/>
  <g>
    <path class="cls-1" d="M219.99,407.76v113h10v-113h-10ZM229.49,520.26h-9v-112h9v112Z"/>
    <path d="M219.49,407.26v114h11v-114h-11ZM229.49,520.26h-9v-112h9v112Z"/>
  </g>
  <path d="M250.17,385.59h-50.33v-114h50.33v114ZM200.83,384.59h48.33v-112h-48.33v112Z"/>
  <path d="M140.06,408.25h-50.33v-136.67h50.33v136.67ZM90.72,407.25h48.33v-134.67h-48.33v134.67Z"/>
  <g>
    <path class="cls-1" d="M219.99,272.09v113h10v-113h-10ZM229.49,384.59h-9v-112h9v112Z"/>
    <path d="M219.49,271.59v114h11v-114h-11ZM229.49,384.59h-9v-112h9v112Z"/>
  </g>
  <path d="M342.46,521.25h-50.33v-114h50.33v114ZM293.12,520.25h48.33v-112h-48.33v112Z"/>
  <g>
    <path class="cls-1" d="M312.29,407.76v113h10v-113h-10ZM321.79,520.26h-9v-112h9v112Z"/>
    <path d="M311.79,407.26v114h11v-114h-11ZM321.79,520.26h-9v-112h9v112Z"/>
  </g>
  <path d="M342.46,385.59h-50.33v-114h50.33v114ZM293.12,384.59h48.33v-112h-48.33v112Z"/>
  <path d="M342.46,251.92h-30.63V34.25h30.63v217.67ZM312.83,250.92h28.63V35.25h-28.63v215.67Z"/>
  <g>
    <path class="cls-1" d="M312.29,272.09v113h10v-113h-10ZM321.79,384.59h-9v-112h9v112Z"/>
    <path d="M311.79,271.59v114h11v-114h-11ZM321.79,384.59h-9v-112h9v112Z"/>
  </g>
  <path d="M433.72,521.25h-50.33v-114h50.33v114ZM384.39,520.25h48.33v-112h-48.33v112Z"/>
  <g>
    <path class="cls-1" d="M403.55,407.76v113h10v-113h-10ZM413.05,520.26h-9v-112h9v112Z"/>
    <path d="M403.05,407.26v114h11v-114h-11ZM413.05,520.26h-9v-112h9v112Z"/>
  </g>
  <path d="M433.72,385.59h-50.33v-114h50.33v114ZM384.39,384.59h48.33v-112h-48.33v112Z"/>
  <g>
    <path class="cls-1" d="M403.55,272.09v113h10v-113h-10ZM413.05,384.59h-9v-112h9v112Z"/>
    <path d="M403.05,271.59v114h11v-114h-11ZM413.05,384.59h-9v-112h9v112Z"/>
  </g>
  <path d="M524.17,521.25h-50.33v-114h50.33v114ZM474.83,520.25h48.33v-112h-48.33v112Z"/>
  <g>
    <path class="cls-1" d="M494.01,407.76v113h10v-113h-10ZM503.49,520.26h-9v-112h9v112Z"/>
    <path d="M493.49,407.26v114h11v-114h-11ZM503.49,520.26h-9v-112h9v112Z"/>
  </g>
  <path d="M524.17,385.59h-50.33v-114h50.33v114ZM474.83,384.59h48.33v-112h-48.33v112Z"/>
  <g>
    <path class="cls-1" d="M494.01,272.09v113h10v-113h-10ZM503.49,384.59h-9v-112h9v112Z"/>
    <path d="M493.49,271.59v114h11v-114h-11ZM503.49,384.59h-9v-112h9v112Z"/>
  </g>
  <path d="M433.72,251.92h-50.33V52.2h50.33v199.72ZM384.39,250.92h48.33V53.2h-48.33v197.72Z"/>
  <g>
    <path class="cls-1" d="M403.55,52.7v198.73h10V52.7h-10ZM413.05,250.92h-9V53.2h9v197.73Z"/>
    <path d="M403.05,52.2v199.73h11V52.2h-11ZM413.05,250.92h-9V53.2h9v197.73Z"/>
  </g>
  <path d="M524.17,251.92h-50.33V52.2h50.33v199.72ZM474.83,250.92h48.33V53.2h-48.33v197.72Z"/>
  <g>
    <path class="cls-1" d="M493.99,52.7v198.73h10V52.7h-10ZM503.49,250.92h-9V53.2h9v197.73Z"/>
    <path d="M493.49,52.2v199.73h11V52.2h-11ZM503.49,250.92h-9V53.2h9v197.73Z"/>
  </g>
  <polygon points="559.83 563.92 152.92 563.92 152.92 555.64 153.92 555.64 153.92 562.92 558.83 562.92 558.83 35.25 312.83 35.25 312.83 251.92 41.17 251.92 41.17 562.92 83.39 562.92 83.39 555.64 84.39 555.64 84.39 563.92 40.17 563.92 40.17 250.92 311.83 250.92 311.83 34.25 559.83 34.25 559.83 563.92"/>
  <path d="M181.22,521.25h-27.81v-63.06h14.83v42.11h12.97v20.95ZM154.42,520.25h25.81v-18.95h-12.97v-42.11h-12.83v61.06Z"/>
  <path d="M134.49,521.25h-27.81v-63.06h14.83v42.11h12.97v20.95ZM107.68,520.25h25.81v-18.95h-12.97v-42.11h-12.83v61.06Z"/>
  <path d="M87.76,521.25h-27.81v-63.06h14.83v42.11h12.97v20.95ZM60.95,520.25h25.81v-18.95h-12.97v-42.11h-12.83v61.06Z"/>
  <rect x="181.18" y="520.25" width="19.16" height="1"/>
</svg>